<svg xmlns="http://www.w3.org/2000/svg" xmlns:xlink="http://www.w3.org/1999/xlink" width="50" zoomAndPan="magnify" viewBox="0 0 37.5 37.499999" height="50" preserveAspectRatio="xMidYMid meet" version="1.0"><defs><clipPath id="0330c8caf5"><path d="M 4 4 L 33 4 L 33 33.445312 L 4 33.445312 Z M 4 4 " clip-rule="nonzero"/></clipPath></defs><g clip-path="url(#0330c8caf5)"><path fill="#fefefe" d="M 31.289062 30.230469 L 31.296875 30.230469 Z M 8.902344 5.894531 C 8.621094 5.894531 8.355469 6.015625 8.070312 6.261719 C 8.035156 6.292969 7.628906 6.671875 7.359375 6.921875 L 7.113281 7.152344 C 5.738281 8.414062 5.113281 10.683594 5.523438 12.9375 C 5.65625 13.667969 5.871094 14.421875 6.160156 15.183594 C 7.617188 19.023438 10.390625 22.363281 12.457031 24.484375 C 14.511719 26.625 17.765625 29.515625 21.601562 31.148438 C 22.359375 31.46875 23.117188 31.71875 23.855469 31.890625 C 26.132812 32.410156 28.480469 31.921875 29.839844 30.644531 L 30.144531 30.359375 C 30.402344 30.117188 30.746094 29.800781 30.800781 29.75 C 31.636719 28.90625 31.214844 28.199219 29.523438 26.511719 L 29.097656 26.085938 C 28.019531 24.992188 26.21875 23.160156 24.695312 23.335938 C 24.285156 23.382812 23.851562 23.679688 23.394531 23.992188 C 22.9375 24.304688 22.464844 24.628906 21.894531 24.804688 C 20.375 25.277344 18.828125 24.964844 17.546875 23.929688 C 16.78125 23.3125 16.003906 22.589844 15.292969 21.839844 C 14.582031 21.121094 13.886719 20.320312 13.296875 19.539062 C 12.308594 18.226562 12.078125 16.699219 12.640625 15.234375 C 12.851562 14.6875 13.203125 14.242188 13.546875 13.8125 C 13.890625 13.382812 14.214844 12.972656 14.285156 12.574219 C 14.546875 11.09375 12.777344 9.230469 11.71875 8.121094 L 11.304688 7.679688 C 10.1875 6.480469 9.507812 5.894531 8.902344 5.894531 Z M 25.691406 33.453125 C 24.925781 33.453125 24.191406 33.363281 23.539062 33.214844 C 22.722656 33.027344 21.882812 32.75 21.046875 32.394531 C 17 30.667969 13.59375 27.652344 11.449219 25.421875 C 9.292969 23.207031 6.398438 19.714844 4.859375 15.660156 C 4.542969 14.820312 4.304688 13.988281 4.160156 13.175781 C 3.765625 11.03125 4.089844 8.058594 6.167969 6.15625 L 6.40625 5.9375 C 6.695312 5.667969 7.136719 5.257812 7.152344 5.242188 C 9.238281 3.449219 11.097656 5.441406 12.332031 6.761719 L 12.734375 7.191406 C 13.96875 8.488281 16.03125 10.660156 15.652344 12.804688 C 15.523438 13.542969 15.054688 14.128906 14.640625 14.648438 C 14.347656 15.015625 14.074219 15.359375 13.9375 15.710938 C 13.539062 16.746094 13.703125 17.789062 14.414062 18.730469 C 14.964844 19.464844 15.621094 20.21875 16.300781 20.90625 C 16.980469 21.621094 17.710938 22.300781 18.429688 22.882812 C 19.347656 23.625 20.402344 23.839844 21.476562 23.507812 C 21.84375 23.394531 22.210938 23.144531 22.601562 22.878906 C 23.152344 22.5 23.773438 22.074219 24.53125 21.984375 C 26.738281 21.726562 28.839844 23.863281 30.097656 25.140625 L 30.511719 25.558594 C 31.792969 26.835938 33.726562 28.761719 31.785156 30.707031 C 31.757812 30.734375 31.382812 31.082031 31.097656 31.347656 L 30.800781 31.621094 C 29.371094 32.96875 27.453125 33.453125 25.691406 33.453125 " fill-opacity="1" fill-rule="nonzero"/></g><path fill="#fefefe" d="M 26.867188 19.296875 C 26.503906 19.296875 26.195312 19.019531 26.175781 18.65625 C 26.0625 16.828125 25.296875 15.085938 24.011719 13.757812 C 22.722656 12.429688 20.992188 11.582031 19.132812 11.375 C 18.753906 11.335938 18.476562 10.996094 18.523438 10.625 C 18.566406 10.25 18.910156 9.984375 19.289062 10.027344 C 21.472656 10.269531 23.507812 11.261719 25.015625 12.820312 C 26.527344 14.382812 27.429688 16.425781 27.558594 18.578125 C 27.582031 18.949219 27.292969 19.273438 26.910156 19.296875 C 26.894531 19.296875 26.878906 19.296875 26.867188 19.296875 " fill-opacity="1" fill-rule="nonzero"/><path fill="#fefefe" d="M 32.054688 20.066406 C 31.691406 20.066406 31.386719 19.785156 31.363281 19.425781 C 31.164062 16.113281 29.773438 12.96875 27.449219 10.5625 C 25.125 8.160156 21.992188 6.628906 18.625 6.257812 C 18.246094 6.214844 17.972656 5.878906 18.015625 5.503906 C 18.058594 5.132812 18.402344 4.863281 18.78125 4.90625 C 22.472656 5.316406 25.90625 6.992188 28.457031 9.628906 C 31.003906 12.265625 32.53125 15.714844 32.75 19.34375 C 32.773438 19.71875 32.480469 20.042969 32.097656 20.0625 C 32.085938 20.066406 32.070312 20.066406 32.054688 20.066406 " fill-opacity="1" fill-rule="nonzero"/></svg>